# xmcd CD database file
#
# Track frame offsets:
#	150
#	18393
#	34608
#	46738
#	62818
#	76780
#	88928
#	105150
#	120690
#	131793
#
# Disc length: 1919 seconds
#
# Revision: 6
# Processed by: cddbd v1.4PL0 Copyright (c) Steve Scherf et al.
# Submitted via: Feurio! 1.66.5ß - http://www.feurio.com
#
DISCID=75077d0a
DTITLE=Randy Travis - High Lonesome
DYEAR=1991
DGENRE=country
TTITLE0=Let Me Try
TTITLE1=Oh, What A Time To Be Me
TTITLE2=Heart Of Hearts
TTITLE3=Point Of Light
TTITLE4=Forever Together
TTITLE5=Better Class Of Losers
TTITLE6=I'd Surrender All
TTITLE7=High Lonesome
TTITLE8=Allergic To The Blues
TTITLE9=I'm Gonna Have A Little Talk
EXTD=(c)1991 Warner Bros /WEA Germany\r\nupc 7599266610205\r\nProduced by Kyle 
EXTD=Lehning 
EXTT0=
EXTT1=
EXTT2=
EXTT3=
EXTT4=
EXTT5=
EXTT6=
EXTT7=
EXTT8=
EXTT9=
PLAYORDER=
